<svg width="133" height="66" viewBox="0 0 133 66" fill="none" xmlns="http://www.w3.org/2000/svg">
<path d="M79.8277 57.459C79.8826 56.1049 80.9289 55.028 82.2243 54.9807C84.2477 54.9071 85.9116 54.9084 87.939 54.9829C89.2251 55.0298 90.2696 56.092 90.3365 57.4359C90.3627 57.9529 90.3817 58.4468 90.395 58.9296C90.3986 59.0536 90.2984 59.1559 90.1738 59.1559H88.4612C88.3433 59.1559 88.2462 59.0638 88.2391 58.9464C88.2311 58.8153 88.2222 58.6815 88.2125 58.5438C88.1828 58.1296 87.8769 57.6455 87.4823 57.5976C85.8047 57.3939 84.6161 57.3983 82.9319 57.5976C82.5396 57.6441 82.2323 58.1265 82.1982 58.538C82.082 59.9439 82.0842 60.9335 82.196 62.2592C82.231 62.6765 82.5466 63.1801 82.9456 63.2187C84.6259 63.3817 85.8101 63.3719 87.4566 63.2187C87.8631 63.181 88.1841 62.6668 88.2143 62.2415C88.2196 62.172 88.224 62.1033 88.2285 62.036C88.236 61.9186 88.3331 61.8274 88.4506 61.8274H90.1681C90.2926 61.8274 90.3933 61.9301 90.3893 62.0546C90.3764 62.4666 90.3596 62.8878 90.3374 63.3259C90.2705 64.6725 89.222 65.7347 87.9328 65.7798C85.9262 65.8503 84.2686 65.8543 82.2456 65.7838C80.9413 65.7386 79.8906 64.649 79.8361 63.286C79.7532 61.2126 79.7448 59.5138 79.8277 57.459Z" fill="white"/>
<path fill-rule="evenodd" clip-rule="evenodd" d="M36.6114 55.0716C36.6435 54.9843 36.7265 54.9263 36.8195 54.9263H40.2361C40.322 54.9263 40.4002 54.9759 40.4367 55.0534L45.2506 65.2967C45.3198 65.4433 45.2125 65.6121 45.0503 65.6121H42.917C42.8325 65.6121 42.7552 65.5638 42.718 65.488L41.7478 63.5098C41.7106 63.4341 41.6334 63.3858 41.5488 63.3858H36.3707C36.2792 63.3858 36.1972 63.442 36.164 63.5271L35.4095 65.4708C35.3764 65.5558 35.2943 65.6121 35.2028 65.6121H33.0519C32.8978 65.6121 32.7907 65.4588 32.8439 65.3144L36.6114 55.0716ZM40.2398 61.1595C40.4038 61.1595 40.511 60.9881 40.4388 60.8406L38.8578 57.6168C38.7727 57.4436 38.5219 57.4542 38.4521 57.6345L37.2004 60.8583C37.144 61.0031 37.2512 61.1595 37.407 61.1595H40.2398Z" fill="white"/>
<path d="M15.0505 54.9263C14.9465 54.9263 14.8623 55.0126 14.8623 55.119V65.6395C14.8623 65.7458 14.9465 65.8322 15.0505 65.8322H17.3082C17.412 65.8322 17.4963 65.7458 17.4963 65.6395V59.5946C17.4963 59.3779 17.7913 59.3261 17.8618 59.5303L20.0359 65.8313L20.0369 65.8322H22.6701L22.6711 65.8313L24.8444 59.5321C24.9149 59.3279 25.21 59.3797 25.21 59.5963V65.6395C25.21 65.7458 25.2942 65.8322 25.3981 65.8322H27.6558C27.7597 65.8322 27.8439 65.7458 27.8439 65.6395V55.119C27.8439 55.0126 27.7597 54.9263 27.6558 54.9263H23.9327C23.853 54.9263 23.7819 54.9777 23.7553 55.0547L21.5309 61.5019C21.4718 61.6733 21.2352 61.6733 21.1761 61.5019L18.9516 55.0547C18.9251 54.9777 18.854 54.9263 18.7743 54.9263H15.0505Z" fill="white"/>
<path d="M64.8249 54.522C64.5656 54.522 64.355 54.7377 64.355 55.0039V56.8377C64.355 57.1035 64.5656 57.2461 64.8249 57.2461H67.6472C67.907 57.2461 68.1176 57.5252 68.1176 57.791V64.7245C68.1176 64.9907 68.3282 65.2064 68.588 65.2064H70.4695C70.7293 65.2064 70.9399 64.9907 70.9399 64.7245V57.791C70.9399 57.5252 71.1505 57.2461 71.4098 57.2461H74.2321C74.4919 57.2461 74.7025 57.1035 74.7025 56.8377V55.0039C74.7025 54.7377 74.4919 54.522 74.2321 54.522H64.8249Z" fill="white"/>
<path fill-rule="evenodd" clip-rule="evenodd" d="M49.6675 55.2155C49.6675 55.0556 49.7938 54.9263 49.9499 54.9263H57.3811C58.8361 54.9263 60.0154 56.1342 60.0154 57.6239V58.8765C60.0154 59.4869 59.7414 60.0504 59.4072 60.5026C59.3185 60.6226 59.3185 60.7919 59.4072 60.9119C59.7406 61.3641 60.0141 61.9267 60.0141 62.5371V65.38C60.0141 65.5394 59.8877 65.6688 59.7321 65.6688H57.7198C57.4786 65.6688 57.3177 65.3427 57.331 65.096C57.3319 65.0783 57.3323 65.0601 57.3323 65.0424V63.3083C57.3323 62.6695 56.8269 62.1522 56.2036 62.1522H52.5354C52.3794 62.1522 52.2251 62.2815 52.2251 62.441V65.3215C52.2251 65.4814 52.1151 65.6107 51.9591 65.6107H49.9499C49.7938 65.6107 49.6675 65.4814 49.6675 65.3215V55.2155ZM56.4568 59.8395H52.6684C52.3661 59.8284 52.1808 59.5737 52.1808 59.2619V57.9131C52.1808 57.5937 52.3568 57.335 52.6684 57.335H56.4266C57.1018 57.335 57.6493 57.8954 57.6493 58.5873C57.6493 59.2685 57.1182 59.8231 56.4568 59.8395Z" fill="white"/>
<path d="M2.65109 54.9263C1.1964 54.9263 0.017137 56.1342 0.017137 57.6239V58.8765C0.017137 60.3662 1.1964 61.5741 2.65109 61.5741H2.90181L7.24409 61.5745C7.76364 61.5745 8.18481 62.006 8.18481 62.538C8.18481 63.07 7.76364 63.5014 7.24409 63.5014H3.10504C2.79332 63.5014 2.54062 63.2427 2.54062 62.9233V62.7298C2.54062 62.5703 2.41427 62.441 2.25841 62.441H0.282209C0.126349 62.441 0 62.5703 0 62.7298V63.019C0 64.5087 1.17926 65.7166 2.63396 65.7166H7.99594C9.45062 65.7166 10.6299 64.5087 10.6299 63.019V62.0556C10.6299 60.5655 9.45062 59.358 7.99594 59.358H3.68397C3.17311 59.3474 2.76206 58.9204 2.76206 58.3946V58.0092C2.76206 57.6899 3.01476 57.4312 3.32648 57.4312H7.13201C7.53097 57.4312 7.8719 57.6854 8.00867 58.0447C8.06143 58.1829 8.1786 58.2985 8.32366 58.2985H10.3469C10.5028 58.2985 10.6291 58.1687 10.6291 58.0092V57.6239C10.6291 56.1342 9.44983 54.9263 7.99515 54.9263H2.65109Z" fill="white"/>
<path d="M111.752 55.4246C111.752 55.3023 111.852 55.2031 111.974 55.2031H119.61C119.733 55.2031 119.832 55.3023 119.832 55.4246V57.5419C119.832 57.6642 119.733 57.7634 119.61 57.7634H114.595C114.472 57.7634 114.373 57.8626 114.373 57.9849V59.2114C114.373 59.3337 114.472 59.4329 114.595 59.4329H119.567C119.689 59.4329 119.788 59.5321 119.788 59.6544V61.4377C119.788 61.5599 119.689 61.6592 119.567 61.6592H114.595C114.472 61.6592 114.373 61.7584 114.373 61.8806V65.6674C114.373 65.7897 114.274 65.8889 114.151 65.8889H111.974C111.852 65.8889 111.752 65.7897 111.752 65.6674V55.4246Z" fill="white"/>
<path fill-rule="evenodd" clip-rule="evenodd" d="M98.6958 55.3484C98.7282 55.2612 98.8111 55.2031 98.9042 55.2031H102.321C102.407 55.2031 102.485 55.2527 102.521 55.3303L107.335 65.5735C107.404 65.7202 107.297 65.8889 107.135 65.8889H105.001C104.917 65.8889 104.84 65.8406 104.802 65.7649L103.832 63.7867C103.795 63.7109 103.718 63.6626 103.633 63.6626H98.4551C98.3638 63.6626 98.2818 63.7189 98.2485 63.8039L97.4939 65.7476C97.4611 65.8327 97.3787 65.8889 97.2873 65.8889H95.1363C94.9824 65.8889 94.8751 65.7357 94.9283 65.5913L98.6958 55.3484ZM102.324 61.4364C102.488 61.4364 102.595 61.2649 102.523 61.1174L100.942 57.8936C100.857 57.7204 100.607 57.7311 100.537 57.9113L99.285 61.1351C99.2287 61.28 99.3356 61.4364 99.4916 61.4364H102.324Z" fill="white"/>
<path d="M125.143 55.2031C125.02 55.2031 124.921 55.3023 124.921 55.4246V65.7786C124.921 65.9013 125.02 66.0001 125.143 66.0001H132.779C132.901 66.0001 133 65.9013 133 65.7786V63.6617C133 63.5391 132.901 63.4403 132.779 63.4403H127.763C127.641 63.4403 127.541 63.3411 127.541 63.2188V61.8806C127.541 61.7584 127.641 61.6592 127.763 61.6592H132.779C132.901 61.6592 133 61.5599 133 61.4377V59.6544C133 59.5321 132.901 59.4329 132.779 59.4329H127.763C127.641 59.4329 127.541 59.3337 127.541 59.2114V57.9849C127.541 57.8626 127.641 57.7634 127.763 57.7634H132.779C132.901 57.7634 133 57.6642 133 57.5419V55.4246C133 55.3023 132.901 55.2031 132.779 55.2031H125.143Z" fill="white"/>
<path fill-rule="evenodd" clip-rule="evenodd" d="M81.1131 40.7911C80.1462 40.8253 79.3655 41.5907 79.3242 42.5521C79.2582 44.0926 79.2648 45.3553 79.3304 46.9101C79.3717 47.878 80.1555 48.6522 81.1291 48.685C82.6931 48.7377 83.9677 48.7346 85.5199 48.6819C86.4819 48.6491 87.264 47.8943 87.3145 46.938C87.3974 45.3744 87.397 44.1009 87.3141 42.5358C87.2635 41.5813 86.4846 40.8266 85.5243 40.7924C83.9571 40.7366 82.6772 40.7356 81.1131 40.7911ZM81.9444 42.7433C81.505 42.7893 81.1623 43.2215 81.1304 43.6597C81.0719 44.4579 81.0723 45.0811 81.1277 45.8377C81.1601 46.282 81.5134 46.7245 81.9603 46.7617C82.9512 46.845 83.7212 46.8255 84.6926 46.7458C85.1475 46.7086 85.5066 46.2718 85.5345 45.8187C85.5819 45.0528 85.581 44.4349 85.5327 43.6652C85.5048 43.2244 85.1639 42.7901 84.7223 42.7433C83.7239 42.6376 82.9463 42.6384 81.9444 42.7433Z" fill="white"/>
<path fill-rule="evenodd" clip-rule="evenodd" d="M61.5552 40.8948C61.5875 40.8086 61.67 40.7515 61.7622 40.7515H64.1953C64.2804 40.7515 64.358 40.8002 64.3952 40.8769L67.8692 48.0881C67.9401 48.2352 67.8328 48.4057 67.6693 48.4057H66.2351C66.1513 48.4057 66.0746 48.3583 66.0369 48.2834L65.3581 46.9333C65.3205 46.8585 65.2438 46.8111 65.16 46.8111H61.4319C61.3415 46.8111 61.2595 46.8664 61.2262 46.9506L60.7026 48.2662C60.669 48.3503 60.5874 48.4057 60.4965 48.4057H59.0437C58.8885 48.4057 58.7817 48.2511 58.8362 48.1063L61.5552 40.8948ZM64.1354 45.2164C64.3003 45.2164 64.4076 45.0428 64.3336 44.8957L63.2775 42.7944C63.1915 42.6236 62.9442 42.6343 62.8732 42.8119L62.0371 44.913C61.979 45.0587 62.0863 45.2164 62.2432 45.2164H64.1354Z" fill="white"/>
<path d="M50.2649 40.7891C49.314 40.823 48.5456 41.5944 48.5053 42.5643C48.4441 44.0361 48.4503 45.253 48.5115 46.7378C48.5514 47.7145 49.3228 48.495 50.2809 48.5273C51.7661 48.5778 52.983 48.5747 54.4567 48.5242C55.4027 48.4919 56.1728 47.7309 56.222 46.7666C56.2344 46.5247 56.2513 45.9994 56.2597 45.5653C56.2642 45.5485 56.2597 45.5299 56.2597 45.5117V44.3326C56.2597 44.2181 56.1671 44.1141 56.0527 44.1141H53.0136C52.8992 44.1141 52.8066 44.2181 52.8066 44.3326V45.424C52.8066 45.5383 52.8992 45.6424 53.0136 45.6424H54.5507C54.56 46.0672 54.5303 46.6598 54.1951 46.6899C52.9866 46.7998 52.0285 46.8064 50.7947 46.6899C50.5017 46.6625 50.2698 46.3015 50.2441 46.0029C50.1621 45.0528 50.1603 44.3445 50.2458 43.337C50.2711 43.0423 50.5065 42.6968 50.7947 42.6636C52.0312 42.5208 52.8939 42.5175 54.1255 42.6636C54.4154 42.6979 54.6415 42.9803 54.6633 43.277C54.677 43.4597 54.8335 43.5871 55.017 43.5871H55.8607C56.0545 43.5871 56.2513 43.4262 56.2415 43.2327C56.2376 43.1482 56.2469 42.9939 56.2415 42.9056C56.2358 42.8056 56.2287 42.6935 56.2211 42.5477C56.1719 41.585 55.3863 40.8242 54.442 40.7904C52.9538 40.7372 51.7505 40.7363 50.2649 40.7891Z" fill="white"/>
<path d="M99.6973 40.75C99.5749 40.75 99.4756 40.8492 99.4756 40.9715V48.2624C99.4756 48.3847 99.5749 48.4839 99.6973 48.4839H105.247C105.369 48.4839 105.468 48.3847 105.468 48.2624V46.8716C105.468 46.7493 105.369 46.6501 105.247 46.6501H101.621C101.499 46.6501 101.4 46.5509 101.4 46.4286V45.5959C101.4 45.4736 101.499 45.3744 101.621 45.3744H105.247C105.369 45.3744 105.468 45.2752 105.468 45.1529V44.0013C105.468 43.879 105.369 43.7798 105.247 43.7798H101.621C101.499 43.7798 101.4 43.6806 101.4 43.5583V42.8053C101.4 42.683 101.499 42.5838 101.621 42.5838H105.247C105.369 42.5838 105.468 42.4846 105.468 42.3623V40.9715C105.468 40.8492 105.369 40.75 105.247 40.75H99.6973Z" fill="white"/>
<path d="M40.0005 40.75C39.878 40.75 39.7788 40.8492 39.7788 40.9715V48.2624C39.7788 48.3847 39.878 48.4839 40.0005 48.4839H45.6634C45.7858 48.4839 45.8851 48.3847 45.8851 48.2624V46.8716C45.8851 46.7493 45.7858 46.6501 45.6634 46.6501H41.9244C41.802 46.6501 41.7027 46.5509 41.7027 46.4286V45.5959C41.7027 45.4736 41.802 45.3744 41.9244 45.3744H45.6634C45.7858 45.3744 45.8851 45.2752 45.8851 45.1529V44.0013C45.8851 43.879 45.7858 43.7798 45.6634 43.7798H41.9244C41.802 43.7798 41.7027 43.6806 41.7027 43.5583V42.8053C41.7027 42.683 41.802 42.5838 41.9244 42.5838H45.6634C45.7858 42.5838 45.8851 42.4846 45.8851 42.3623V40.9715C45.8851 40.8492 45.7858 40.75 45.6634 40.75H40.0005Z" fill="white"/>
<path d="M27.625 40.75C27.5487 40.75 27.4868 40.8118 27.4868 40.888V48.4241C27.4868 48.5003 27.5487 48.5619 27.625 48.5619H29.2826C29.3589 48.5619 29.4208 48.5003 29.4208 48.4241V44.0937C29.4208 43.9386 29.6374 43.9015 29.6891 44.0477L31.2855 48.5614L31.2862 48.5619H33.2196L33.2203 48.5614L34.8161 44.0493C34.8679 43.903 35.0845 43.9401 35.0845 44.0953V48.4241C35.0845 48.5003 35.1464 48.5619 35.2226 48.5619H36.8803C36.9566 48.5619 37.0184 48.5003 37.0184 48.4241V40.888C37.0184 40.8118 36.9566 40.75 36.8803 40.75H34.1467C34.0881 40.75 34.0359 40.7869 34.0164 40.842L32.3832 45.4603C32.3398 45.583 32.1661 45.583 32.1227 45.4603L30.4894 40.842C30.4699 40.7869 30.4177 40.75 30.3591 40.75H27.625Z" fill="white"/>
<path d="M89.6978 40.888C89.6978 40.8118 89.7598 40.75 89.8361 40.75H92.61C92.6637 40.75 92.7129 40.7812 92.7355 40.8299L94.9602 45.6167C95.0222 45.7509 95.2235 45.7062 95.2235 45.5586V40.888C95.2235 40.8118 95.2851 40.75 95.3614 40.75H97.019C97.0957 40.75 97.1573 40.8118 97.1573 40.888V48.4241C97.1573 48.5003 97.0957 48.5619 97.019 48.5619H94.3838C94.3302 48.5619 94.2814 48.5309 94.2584 48.4821L91.8954 43.3969C91.8329 43.2628 91.6316 43.3072 91.6316 43.455V48.4241C91.6316 48.5003 91.57 48.5619 91.4937 48.5619H89.8361C89.7598 48.5619 89.6978 48.5003 89.6978 48.4241V40.888Z" fill="white"/>
<path d="M76.8273 40.9282C76.9035 40.9282 76.9652 40.99 76.9652 41.0662V42.8605C76.9652 42.9037 76.9536 42.9409 76.9191 42.967L73.1507 46.2891C73.0452 46.3688 73.0997 46.449 73.1507 46.449H76.8273C76.9035 46.449 76.9652 46.511 76.9652 46.5872V48.2434C76.9652 48.3196 76.9035 48.3812 76.8273 48.3812H73.5187H70.2105C70.2029 48.3812 70.1967 48.375 70.1967 48.3674L70.1963 48.34V46.449C70.1963 46.4056 70.2162 46.3595 70.2513 46.3334L74.259 42.967C74.365 42.8873 74.2599 42.8605 74.2147 42.8605H70.3346C70.2584 42.8605 70.1967 42.7987 70.1967 42.7225V41.0662C70.1967 40.99 70.2584 40.9282 70.3346 40.9282H76.8273Z" fill="white"/>
<path fill-rule="evenodd" clip-rule="evenodd" d="M66.5007 31.0067C75.0704 31.0067 82.0175 24.0656 82.0175 15.5033C82.0175 6.94107 75.0704 0 66.5007 0C57.931 0 50.9839 6.94107 50.9839 15.5033C50.9839 24.0656 57.931 31.0067 66.5007 31.0067ZM66.4976 7.99428C67.4091 9.34139 67.9415 10.9658 67.9415 12.7145C67.9415 14.3751 67.4614 15.9238 66.6324 17.2293C67.0872 17.9002 67.6467 18.5106 68.3033 19.0341C69.5837 17.2554 70.3382 15.073 70.3382 12.7145C70.3382 9.39064 68.8402 6.41653 66.4825 4.42953C65.8689 4.94659 65.3134 5.53053 64.828 6.17007L64.8333 6.17454C63.4372 7.99804 62.6077 10.278 62.6077 12.7515C62.6077 13.2964 62.6481 13.832 62.7257 14.3553L62.7487 14.3468L62.7501 14.3553C63.5166 14.0711 64.3009 13.8773 65.0896 13.7703C65.0492 13.4363 65.0288 13.0963 65.0288 12.7515C65.0288 10.9868 65.5706 9.34861 66.4976 7.99428ZM66.8811 16.2778C67.2291 15.5472 67.472 14.7572 67.5913 13.9272C65.4141 13.7113 63.1508 14.1503 61.1115 15.3272C58.2316 16.9891 56.4032 19.7727 55.8606 22.8071L55.8615 22.8074L55.8606 22.8125C58.7614 23.8598 62.0873 23.6693 64.9672 22.0074C65.4482 21.7297 65.9 21.4206 66.3216 21.0843C65.6978 20.5581 65.1441 19.9718 64.6631 19.339C64.3811 19.5529 64.0827 19.7514 63.7688 19.9328C62.2442 20.8124 60.5595 21.1628 58.9276 21.041C59.6378 19.5662 60.7843 18.282 62.3098 17.4018C63.7502 16.5706 65.3338 16.212 66.8811 16.2778ZM68.0329 22.0235C65.9678 20.8319 64.4436 19.0637 63.5463 17.0397C64.3279 16.7349 65.1361 16.5575 65.9439 16.5005C66.6594 17.8952 67.7722 19.1069 69.2312 19.949C70.7558 20.8286 72.4405 21.179 74.0729 21.0572C73.3622 19.5849 72.2166 18.3032 70.6933 17.4242C70.3768 17.2416 70.0536 17.0818 69.7251 16.9443C70.0261 16.2085 70.25 15.4329 70.3865 14.6277C70.8986 14.8264 71.4013 15.0667 71.8917 15.3496C74.7716 17.0115 76.5999 19.7951 77.1426 22.8295C76.3876 23.102 75.6042 23.2908 74.8071 23.3915V23.3903C72.5403 23.6776 70.1644 23.2535 68.0329 22.0235Z" fill="white"/>
</svg>
